<svg xmlns="http://www.w3.org/2000/svg" width="500" height="500" viewBox="0 0 500 500" fill="none"><metadata><rdf:RDF xmlns:rdf="http://www.w3.org/1999/02/22-rdf-syntax-ns#" xmlns:dc="http://purl.org/dc/elements/1.1/"><rdf:Description><dc:creator>RealFaviconGenerator</dc:creator><dc:source>https://realfavicongenerator.net</dc:source></rdf:Description></rdf:RDF></metadata><path d="M249.53 440.059C144.303 440.059 59 354.756 59 249.53C59 144.303 144.303 59 249.53 59C354.756 59 440.059 144.303 440.059 249.53C440.059 354.756 354.756 440.059 249.53 440.059Z" fill="#FF8D00"></path><path opacity="0.6" d="M249.53 440.059C144.303 440.059 59 354.756 59 249.53C59 144.303 144.303 59 249.53 59C354.756 59 440.059 144.303 440.059 249.53C440.059 354.756 354.756 440.059 249.53 440.059Z" fill="white"></path><path opacity="0.6" d="M114.805 384.149C141.756 411.145 176.192 429.427 213.653 436.627C251.114 443.828 289.874 439.614 324.913 424.532C359.952 409.451 389.655 384.196 410.176 352.039C430.696 319.882 441.089 282.304 440.007 244.173C439.047 279.365 427.798 313.505 407.65 342.375C387.503 371.245 359.339 393.581 326.638 406.622C293.937 419.663 258.132 422.839 223.647 415.757C189.161 408.675 157.506 391.645 132.591 366.772C107.676 341.899 90.5941 310.272 83.4546 275.798C76.3151 241.325 79.4312 205.514 92.4178 172.792C105.405 140.07 127.693 111.868 156.529 91.6725C185.366 71.4766 219.487 60.1708 254.677 59.1518C216.597 58.1354 179.087 68.5602 146.992 89.0798C114.897 109.599 89.6922 139.271 74.6328 174.262C59.5734 209.252 55.3516 247.955 62.5127 285.369C69.6738 322.784 87.8887 357.192 114.805 384.149Z" fill="#FF8D00"></path><g opacity="0.5">
<path d="M347.806 309.037C346.087 310.591 344.702 312.478 343.737 314.585C342.773 316.692 342.248 318.973 342.194 321.289C342.153 323.776 342.61 326.247 343.538 328.554C344.467 330.862 345.848 332.96 347.6 334.726C349.4 336.543 351.596 337.921 354.016 338.751C356.435 339.582 359.014 339.843 361.551 339.514C366.079 339.013 370.305 337 373.546 333.799C369.582 333.893 365.618 333.618 361.706 332.976C358.613 332.495 355.749 331.054 353.52 328.857C351.219 326.579 349.551 323.74 348.681 320.62C347.732 316.837 347.436 312.92 347.806 309.037Z" fill="#FF8D00"></path>
<path d="M371.384 327.522C372.768 326.585 373.917 325.34 374.739 323.884C375.56 322.428 376.033 320.801 376.12 319.131C376.241 317.295 375.968 315.454 375.32 313.732C374.672 312.009 373.664 310.445 372.362 309.144C371.045 307.791 369.422 306.776 367.63 306.185C365.837 305.594 363.929 305.443 362.066 305.746C360.428 306.018 358.861 306.614 357.456 307.497C356.05 308.381 354.835 309.536 353.881 310.894C356.589 311.252 359.272 311.785 361.911 312.49C363.672 312.942 365.274 313.868 366.545 315.167C367.925 316.547 369.011 318.194 369.737 320.006C370.639 322.421 371.193 324.952 371.384 327.522Z" fill="#FF8D00"></path>
<path d="M115.011 155.424C114.791 157.716 115.038 160.03 115.737 162.224C116.436 164.418 117.572 166.448 119.078 168.191C120.696 170.082 122.679 171.626 124.908 172.732C127.137 173.838 129.567 174.482 132.051 174.626C134.599 174.789 137.15 174.363 139.507 173.381C141.864 172.399 143.963 170.887 145.642 168.963C148.71 165.589 150.527 161.264 150.79 156.711C147.91 159.43 144.772 161.861 141.42 163.97C138.813 165.677 135.729 166.507 132.617 166.338C129.375 166.133 126.239 165.106 123.505 163.352C120.246 161.208 117.374 158.527 115.011 155.424Z" fill="#FF8D00"></path>
<path d="M144.972 153.567C145.379 151.933 145.4 150.226 145.034 148.582C144.667 146.938 143.924 145.402 142.862 144.095C141.755 142.609 140.34 141.38 138.714 140.491C137.088 139.603 135.289 139.076 133.441 138.947C131.536 138.829 129.63 139.169 127.883 139.939C126.136 140.71 124.6 141.888 123.402 143.374C121.301 145.923 120.285 149.195 120.571 152.486C122.853 150.955 125.225 149.563 127.675 148.316C129.272 147.527 131.043 147.155 132.823 147.235C134.756 147.362 136.646 147.869 138.383 148.728C140.808 150.004 143.029 151.635 144.972 153.567Z" fill="#FF8D00"></path>
<path d="M365.515 194.078C365.362 195.641 365.529 197.219 366.007 198.715C366.485 200.211 367.264 201.594 368.295 202.778C370.549 205.362 373.73 206.953 377.15 207.206C378.89 207.303 380.63 207.002 382.237 206.324C383.843 205.645 385.272 204.609 386.416 203.293C388.491 200.988 389.724 198.049 389.917 194.953C387.962 196.873 385.824 198.597 383.533 200.101C381.745 201.261 379.64 201.836 377.51 201.749C375.296 201.583 373.157 200.876 371.281 199.689C369.061 198.152 367.112 196.256 365.515 194.078Z" fill="#FF8D00"></path>
<path d="M385.901 192.845C386.185 191.73 386.208 190.564 385.967 189.439C385.725 188.314 385.227 187.259 384.511 186.358C383.734 185.38 382.759 184.577 381.65 184C380.541 183.424 379.324 183.087 378.076 183.012C376.78 182.931 375.483 183.159 374.292 183.678C373.102 184.198 372.052 184.993 371.229 185.998C370.518 186.86 369.983 187.854 369.656 188.923C369.329 189.992 369.217 191.115 369.325 192.227C370.871 191.174 372.488 190.227 374.164 189.396C375.253 188.817 376.487 188.567 377.716 188.675C379.038 188.744 380.334 189.076 381.526 189.653C383.133 190.497 384.607 191.572 385.901 192.845Z" fill="#FF8D00"></path>
<path d="M174.162 237.736C167.878 238.852 161.95 241.446 156.866 245.304C151.782 249.162 147.687 254.173 144.921 259.924C145.513 252.453 147.977 245.25 152.086 238.982C156.195 232.713 161.816 227.58 168.432 224.057C175.047 220.533 182.443 218.732 189.938 218.819C197.432 218.907 204.784 220.881 211.315 224.558C217.846 228.236 223.346 233.499 227.307 239.862C231.268 246.225 233.563 253.483 233.98 260.966C234.397 268.45 232.923 275.918 229.693 282.682C226.464 289.445 221.583 295.287 215.501 299.667C219.661 293.022 221.813 285.317 221.701 277.477C221.588 269.638 219.215 261.998 214.866 255.474C210.517 248.951 204.377 243.822 197.184 240.703C189.991 237.583 182.051 236.607 174.317 237.891L174.162 237.736Z" fill="#FF8D00"></path>
<path d="M127.572 255.709C124.522 267.216 125.079 279.381 129.168 290.561C133.293 302.004 140.402 312.135 149.76 319.905C159.248 328.025 171.466 332.239 183.943 331.694C195.921 331.05 207.323 326.347 216.273 318.361C206.167 323.007 195.11 325.211 183.995 324.796C181.364 324.62 178.749 324.259 176.17 323.715C173.624 323.132 171.142 322.305 168.756 321.244C163.914 319.246 159.415 316.502 155.423 313.11C153.415 311.359 151.356 309.558 149.451 307.653C147.627 305.722 145.909 303.694 144.303 301.578C140.888 297.39 137.985 292.811 135.654 287.936C130.799 277.854 128.049 266.889 127.572 255.709Z" fill="#FF8D00"></path>
<path d="M341.628 146.202C339.463 146.709 337.451 147.725 335.758 149.167C334.066 150.609 332.742 152.434 331.898 154.491C332.048 151.942 332.828 149.469 334.167 147.295C335.507 145.121 337.365 143.313 339.575 142.033C341.784 140.753 344.277 140.041 346.829 139.961C349.382 139.88 351.914 140.434 354.2 141.572C356.486 142.711 358.454 144.398 359.928 146.484C361.402 148.569 362.336 150.987 362.646 153.522C362.956 156.057 362.632 158.629 361.705 161.008C360.777 163.387 359.274 165.499 357.33 167.155C359.157 164.051 359.693 160.354 358.823 156.859C358.405 155.024 357.627 153.29 356.533 151.758C355.44 150.226 354.053 148.927 352.453 147.936C350.854 146.944 349.073 146.28 347.215 145.983C345.356 145.685 343.457 145.76 341.628 146.202Z" fill="#FF8D00"></path>
<path d="M325.618 153.314C324.508 157.406 324.779 161.749 326.39 165.67C327.978 169.755 330.669 173.319 334.164 175.966C337.725 178.704 342.208 179.958 346.673 179.467C350.936 178.964 354.879 176.956 357.793 173.804C354.266 175.452 350.412 176.28 346.519 176.223C342.924 176.109 339.46 174.846 336.635 172.62C333.597 170.305 331.057 167.403 329.164 164.087C327.272 160.77 326.066 157.107 325.618 153.314Z" fill="#FF8D00"></path>
<path d="M290.457 349.35C287.422 350.296 284.658 351.953 282.392 354.182C280.127 356.412 278.426 359.15 277.432 362.169C277.23 358.423 277.977 354.686 279.603 351.305C281.229 347.925 283.683 345.009 286.736 342.829C289.789 340.649 293.342 339.274 297.068 338.833C300.793 338.391 304.57 338.897 308.048 340.304C311.526 341.71 314.592 343.972 316.964 346.879C319.335 349.786 320.934 353.244 321.614 356.934C322.293 360.623 322.03 364.424 320.849 367.985C319.668 371.546 317.607 374.751 314.858 377.304C316.522 373.742 317.116 369.774 316.566 365.882C316.016 361.989 314.348 358.34 311.762 355.379C309.177 352.418 305.787 350.271 302.005 349.201C298.222 348.13 294.21 348.182 290.457 349.35Z" fill="#FF8D00"></path>
<path d="M268.577 361.189C267.852 367.068 268.929 373.028 271.666 378.281C274.438 383.637 278.576 388.166 283.661 391.409C288.847 394.834 295.147 396.142 301.267 395.064C307.131 394.001 312.464 390.989 316.403 386.518C311.736 389.434 306.442 391.199 300.959 391.666C295.681 392.027 290.432 390.633 286.029 387.702C281.445 384.824 277.53 380.997 274.549 376.479C271.524 371.85 269.491 366.644 268.577 361.189Z" fill="#FF8D00"></path>
<path d="M356.043 182.965C353.211 189.812 353.623 199.336 360.11 203.969C359.221 196.885 357.863 189.868 356.043 182.965Z" fill="#FF8D00"></path>
<path d="M323.095 150.277C312.457 150.927 301.78 150.495 291.229 148.99C295.846 152.267 301.314 154.132 306.971 154.361C312.628 154.589 318.229 153.171 323.095 150.277Z" fill="#FF8D00"></path>
<path d="M317.329 160.367C310.688 162.632 306.158 164.537 299.671 167.163C302.924 168.52 306.574 168.57 309.863 167.305C313.151 166.039 315.826 163.554 317.329 160.367Z" fill="#FF8D00"></path>
<path d="M120.519 278.513C109.883 279.18 99.2058 278.766 88.6528 277.277C93.2696 280.558 98.7425 282.422 104.402 282.642C110.062 282.861 115.662 281.426 120.519 278.513Z" fill="#FF8D00"></path>
<path d="M114.754 288.654C108.113 290.919 103.634 292.824 97.0957 295.45C100.349 296.794 103.994 296.838 107.28 295.574C110.565 294.309 113.24 291.833 114.754 288.654Z" fill="#FF8D00"></path>
<path d="M254.008 293.335C247.419 290.864 242.786 289.474 236.042 287.363C237.7 290.472 240.489 292.824 243.833 293.936C247.176 295.047 250.819 294.832 254.008 293.335Z" fill="#FF8D00"></path>
<path d="M341.371 186.26C332.876 191.408 327.059 203.506 331.075 213.236C333.166 203.788 336.635 194.698 341.371 186.26Z" fill="#FF8D00"></path>
<path d="M206.389 329.168C205.966 333.001 206.802 336.867 208.771 340.183C210.74 343.498 213.735 346.083 217.302 347.547C214.086 341.18 210.44 335.039 206.389 329.168Z" fill="#FF8D00"></path>
<path d="M141.112 319.9C137.564 321.414 134.605 324.04 132.683 327.384C130.76 330.728 129.978 334.606 130.455 338.433C134.432 332.51 137.993 326.317 141.112 319.9Z" fill="#FF8D00"></path>
<path d="M182.605 339.621C174.316 347.292 167.16 359.441 170.816 370.921C172.875 359.39 178.692 350.329 182.605 339.621Z" fill="#FF8D00"></path>
<path d="M193.673 337.197C187.547 345.177 186.054 358.253 193.158 366.078C191.914 356.478 192.087 346.747 193.673 337.197Z" fill="#FF8D00"></path>
</g></svg>